<svg width="15" height="16" viewBox="0 0 15 16" fill="none" xmlns="http://www.w3.org/2000/svg">
<g id="bxs-star.svg">
<path id="Vector" d="M13.7169 6.23687C13.6776 6.12116 13.6053 6.01949 13.5089 5.94441C13.4125 5.86932 13.2962 5.82412 13.1744 5.81437L9.61124 5.53124L8.06937 2.11812C8.02026 2.00819 7.94039 1.91482 7.8394 1.84928C7.7384 1.78374 7.62059 1.74883 7.5002 1.74876C7.3798 1.7487 7.26195 1.78348 7.16088 1.84891C7.05982 1.91434 6.97984 2.00762 6.93062 2.11749L5.38874 5.53124L1.82562 5.81437C1.7059 5.82385 1.59145 5.86763 1.49597 5.94045C1.40048 6.01328 1.32799 6.11207 1.28718 6.22501C1.24636 6.33795 1.23895 6.46026 1.26583 6.57731C1.29271 6.69435 1.35274 6.80117 1.43874 6.88499L4.07187 9.45187L3.14062 13.4844C3.11234 13.6064 3.1214 13.7342 3.16663 13.851C3.21186 13.9679 3.29116 14.0684 3.39424 14.1396C3.49733 14.2109 3.61944 14.2494 3.74473 14.2504C3.87002 14.2514 3.99271 14.2146 4.09687 14.145L7.49999 11.8762L10.9031 14.145C11.0096 14.2157 11.1351 14.2521 11.2629 14.2493C11.3906 14.2465 11.5145 14.2046 11.6177 14.1293C11.721 14.054 11.7987 13.9489 11.8405 13.8282C11.8822 13.7074 11.886 13.5767 11.8512 13.4537L10.7081 9.45374L13.5431 6.90249C13.7287 6.73499 13.7969 6.47374 13.7169 6.23687V6.23687Z" fill="#FFE600"/>
</g>
</svg>
