<svg width="9" height="8" viewBox="0 0 9 8" fill="none" xmlns="http://www.w3.org/2000/svg">
<path id="Combined Shape" fill-rule="evenodd" clip-rule="evenodd" d="M4.25293 0C3.70064 0 3.25293 0.447715 3.25293 1V3H1.25293C0.700645 3 0.25293 3.44772 0.25293 4C0.25293 4.55228 0.700645 5 1.25293 5H3.25293V7C3.25293 7.55228 3.70064 8 4.25293 8C4.80521 8 5.25293 7.55228 5.25293 7V5H7.25293C7.80521 5 8.25293 4.55228 8.25293 4C8.25293 3.44772 7.80521 3 7.25293 3H5.25293V1C5.25293 0.447715 4.80521 0 4.25293 0Z" fill="#BBBBBB"/>
</svg>
