<svg width="13" height="14" viewBox="0 0 13 14" fill="none" xmlns="http://www.w3.org/2000/svg">
<g id="FontAwesome - Icons" clip-path="url(#clip0_1_4357)">
<path id="Vector" d="M10.8779 0.875005H8.06543L7.84512 0.363677C7.79845 0.25436 7.72656 0.162406 7.63754 0.0981575C7.54851 0.0339095 7.44589 -8.27959e-05 7.34121 4.7941e-06H4.6623C4.55786 -0.000463619 4.45542 0.0334019 4.36671 0.0977214C4.27801 0.162041 4.20662 0.254213 4.16074 0.363677L3.94043 0.875005H1.12793C1.02847 0.875005 0.933091 0.921099 0.862765 1.00315C0.792439 1.08519 0.75293 1.19647 0.75293 1.31251L0.75293 2.18751C0.75293 2.30354 0.792439 2.41482 0.862765 2.49686C0.933091 2.57891 1.02847 2.62501 1.12793 2.62501H10.8779C10.9774 2.62501 11.0728 2.57891 11.1431 2.49686C11.2134 2.41482 11.2529 2.30354 11.2529 2.18751V1.31251C11.2529 1.19647 11.2134 1.08519 11.1431 1.00315C11.0728 0.921099 10.9774 0.875005 10.8779 0.875005ZM1.9998 12.7695C2.01769 13.1028 2.14375 13.4155 2.35232 13.6441C2.56089 13.8727 2.83629 14 3.12246 14H8.8834C9.16957 14 9.44497 13.8727 9.65354 13.6441C9.86211 13.4155 9.98817 13.1028 10.0061 12.7695L10.5029 3.50001H1.50293L1.9998 12.7695Z" fill="black" fill-opacity="0.5"/>
</g>
<defs>
<clipPath id="clip0_1_4357">
<rect width="12" height="14" fill="white" transform="translate(0.25293)"/>
</clipPath>
</defs>
</svg>
